<?xml version="1.0" encoding="UTF-8" standalone="no"?>
<svg
   xmlns:dc="http://purl.org/dc/elements/1.1/"
   xmlns:cc="http://creativecommons.org/ns#"
   xmlns:rdf="http://www.w3.org/1999/02/22-rdf-syntax-ns#"
   xmlns:svg="http://www.w3.org/2000/svg"
   xmlns="http://www.w3.org/2000/svg"
   xmlns:sodipodi="http://sodipodi.sourceforge.net/DTD/sodipodi-0.dtd"
   xmlns:inkscape="http://www.inkscape.org/namespaces/inkscape"
   sodipodi:docname="coracao.svg"
   inkscape:version="1.0 (6e3e5246a0, 2020-05-07)"
   id="svg8"
   version="1.1"
   viewBox="0 0 87.3125 71.4375"
   height="270"
   width="330"
   inkscape:export-filename="/home/artphil/Git/alura-game-dev/imagens/assets/coracao.png"
   inkscape:export-xdpi="96"
   inkscape:export-ydpi="96">
  <defs
     id="defs2" />
  <sodipodi:namedview
     units="px"
     inkscape:guide-bbox="true"
     showguides="true"
     inkscape:window-maximized="1"
     inkscape:window-y="431"
     inkscape:window-x="1360"
     inkscape:window-height="1025"
     inkscape:window-width="1920"
     showgrid="false"
     inkscape:document-rotation="0"
     inkscape:current-layer="layer1"
     inkscape:document-units="px"
     inkscape:cy="140.55801"
     inkscape:cx="144.279"
     inkscape:zoom="2.56"
     inkscape:pageshadow="2"
     inkscape:pageopacity="0.0"
     borderopacity="1.0"
     bordercolor="#666666"
     pagecolor="#ffffff"
     id="base">
    <sodipodi:guide
       inkscape:color="rgb(0,0,255)"
       inkscape:locked="false"
       inkscape:label=""
       id="guide958"
       orientation="0,1"
       position="0,70.114583" />
    <sodipodi:guide
       inkscape:color="rgb(0,0,255)"
       inkscape:locked="false"
       inkscape:label=""
       id="guide960"
       orientation="0,1"
       position="0,48.947917" />
    <sodipodi:guide
       inkscape:color="rgb(0,0,255)"
       inkscape:locked="false"
       inkscape:label=""
       id="guide962"
       orientation="-1,0"
       position="1.3229167,50.270833" />
    <sodipodi:guide
       inkscape:color="rgb(0,0,255)"
       inkscape:locked="false"
       inkscape:label=""
       id="guide964"
       orientation="-1,0"
       position="30.427083,50.270833" />
    <sodipodi:guide
       inkscape:color="rgb(0,0,255)"
       inkscape:locked="false"
       inkscape:label=""
       id="guide966"
       orientation="-1,0"
       position="27.78125,50.270833" />
    <sodipodi:guide
       inkscape:color="rgb(0,0,255)"
       inkscape:locked="false"
       inkscape:label=""
       id="guide968"
       orientation="-1,0"
       position="56.885416,50.270833" />
    <sodipodi:guide
       inkscape:color="rgb(0,0,255)"
       inkscape:locked="false"
       inkscape:label=""
       id="guide970"
       orientation="-1,0"
       position="0,87.3125" />
    <sodipodi:guide
       inkscape:color="rgb(0,0,255)"
       inkscape:locked="false"
       inkscape:label=""
       id="guide982"
       orientation="-1,0"
       position="59.53125,50.270833" />
    <sodipodi:guide
       inkscape:color="rgb(0,0,255)"
       inkscape:locked="false"
       inkscape:label=""
       id="guide984"
       orientation="-1,0"
       position="85.989583,50.270833" />
    <sodipodi:guide
       inkscape:color="rgb(0,0,255)"
       inkscape:locked="false"
       inkscape:label=""
       id="guide988"
       orientation="-1,0"
       position="87.3125,50.270833" />
    <sodipodi:guide
       position="0,46.302083"
       orientation="0,1"
       id="guide846"
       inkscape:label=""
       inkscape:locked="false"
       inkscape:color="rgb(0,0,255)" />
    <sodipodi:guide
       position="0,25.135417"
       orientation="0,1"
       id="guide848"
       inkscape:label=""
       inkscape:locked="false"
       inkscape:color="rgb(0,0,255)" />
    <sodipodi:guide
       position="0,22.489583"
       orientation="0,1"
       id="guide858"
       inkscape:label=""
       inkscape:locked="false"
       inkscape:color="rgb(0,0,255)" />
    <sodipodi:guide
       inkscape:color="rgb(0,0,255)"
       inkscape:locked="false"
       inkscape:label=""
       id="guide885"
       orientation="0,1"
       position="0,35.71875" />
    <sodipodi:guide
       inkscape:color="rgb(0,0,255)"
       inkscape:locked="false"
       inkscape:label=""
       id="guide887"
       orientation="0,1"
       position="0,11.90625" />
    <sodipodi:guide
       inkscape:color="rgb(0,0,255)"
       inkscape:locked="false"
       inkscape:label=""
       id="guide889"
       orientation="-1,0"
       position="14.552083,47.625" />
    <sodipodi:guide
       inkscape:color="rgb(0,0,255)"
       inkscape:locked="false"
       inkscape:label=""
       id="guide891"
       orientation="-1,0"
       position="43.65625,47.625" />
    <sodipodi:guide
       inkscape:color="rgb(0,0,255)"
       inkscape:locked="false"
       inkscape:label=""
       id="guide893"
       orientation="-1,0"
       position="72.760417,47.625" />
    <sodipodi:guide
       inkscape:color="rgb(0,0,255)"
       inkscape:locked="false"
       inkscape:label=""
       id="guide872"
       orientation="0,1"
       position="0,1.1646958" />
  </sodipodi:namedview>
  <metadata
     id="metadata5">
    <rdf:RDF>
      <cc:Work
         rdf:about="">
        <dc:format>image/svg+xml</dc:format>
        <dc:type
           rdf:resource="http://purl.org/dc/dcmitype/StillImage" />
        <dc:title></dc:title>
      </cc:Work>
    </rdf:RDF>
  </metadata>
  <g
     id="layer1"
     inkscape:groupmode="layer"
     inkscape:label="Layer 1">
    <g
       style="stroke-width:1.34032;stroke-miterlimit:4;stroke-dasharray:none"
       transform="matrix(0.40342575,0,0,0.38637172,-2.8887843,-1.7465203)"
       id="g888">
      <path
         style="fill:#ff0000;fill-opacity:1;stroke:#000000;stroke-width:1.34032;stroke-linejoin:round;stroke-miterlimit:4;stroke-dasharray:none"
         d="M 28.390878,47.23733 C 12.328458,31.085516 12.476638,31.268557 11.470598,26.335281 c -1.9863702,-9.7405 7.0914,-19.101576 16.91643,-17.44437 3.94652,0.665667 5.79526,1.807994 10.55712,6.5232 l 4.26407,4.222292 4.271,-4.229155 c 3.42861,-3.395019 4.68105,-4.419787 6.35,-5.195681 9.16817,-4.26228 19.63419,1.363428 21.24413,11.419173 0.29954,1.870906 0.27642,2.723782 -0.12751,4.704541 -1.00604,4.933276 -0.85787,4.750235 -16.92029,20.902049 -8.04545,8.090221 -14.71325,14.709493 -14.81733,14.709493 -0.10409,0 -6.77189,-6.619272 -14.81734,-14.709493 z"
         id="path46"
         sodipodi:nodetypes="sssscsssssss" />
      <path
         id="path875"
         style="fill:#ffffff;fill-opacity:1;stroke:#ff5555;stroke-width:1.34032;stroke-linecap:round;stroke-linejoin:round;stroke-miterlimit:4;stroke-dasharray:none;paint-order:stroke markers fill"
         d="m 25.923773,10.69356 c -7.653706,0.251461 -14.067565,7.747537 -12.48296,15.517915 0.409504,2.008064 0.618924,3.06508 2.105298,5.014164 -0.614371,-0.988596 -0.809512,-1.83812 -1.114145,-3.105237 -1.890787,-7.864712 6.750116,-15.422994 16.102377,-14.084928 3.359156,0.480609 5.135928,1.285218 8.712129,4.168738 l -1.621607,-1.606103 c -4.191691,-4.150626 -5.819511,-5.156322 -9.29349,-5.742285 -0.810808,-0.136761 -1.615842,-0.188278 -2.407602,-0.162264 z"
         sodipodi:nodetypes="sscssccss" />
      <path
         id="path880"
         style="fill:#ffffff;fill-opacity:1;stroke:#ff5555;stroke-width:1.34032;stroke-linecap:round;stroke-linejoin:round;stroke-miterlimit:4;stroke-dasharray:none;paint-order:stroke markers fill"
         d="m 63.045477,11.590024 c 3.399403,1.412033 6.181938,4.34607 7.270074,8.366287 0.407653,1.506094 0.462729,2.206457 0.303842,3.863556 -0.395734,4.127174 -0.290303,3.96433 -12.042177,18.584988 -1.826247,2.272056 -3.475787,4.314779 -4.995942,6.192586 1.681609,-1.679524 3.503906,-3.503789 5.513409,-5.524474 13.227194,-13.300809 13.10528,-13.150105 13.933741,-17.212594 0.332631,-1.631129 0.351352,-2.333528 0.104685,-3.874194 -0.895198,-5.59144 -5.11649,-9.515014 -10.087632,-10.396155 z"
         sodipodi:nodetypes="cccsccccc" />
    </g>
    <g
       style="stroke-width:2.10714;stroke-miterlimit:4;stroke-dasharray:none"
       id="g856"
       transform="matrix(0.16191182,0,0,0.38951168,7.5524588,21.998695)">
      <path
         sodipodi:nodetypes="ssszczsssszs"
         id="path850"
         d="M 28.390878,51.312946 C 12.328458,35.161132 12.476638,31.268557 11.470598,26.335281 9.4842278,16.594781 18.67322,7.6490208 28.49825,9.3062268 c 3.94652,0.665667 8.002484,1.9886472 10.445898,3.3908072 2.443414,1.40216 4.26407,4.222292 4.26407,4.222292 0,0 2.393506,-3.105703 4.271,-4.229155 1.877495,-1.123452 5.512554,-2.9532702 7.83338,-3.3439294 6.731408,-1.133082 18.15081,2.2287534 19.76075,12.2844984 0.29954,1.870906 0.27642,2.723782 -0.12751,4.704541 -1.00604,4.933276 -0.85787,8.825851 -16.92029,24.977665 -8.04545,8.090221 -10.444923,10.633877 -14.81733,10.633877 -4.372407,0 -6.77189,-2.543656 -14.81734,-10.633877 z"
         style="fill:#ff0000;fill-opacity:1;stroke:#000000;stroke-width:2.10714;stroke-linejoin:round;stroke-miterlimit:4;stroke-dasharray:none" />
      <path
         sodipodi:nodetypes="sscssccss"
         d="m 25.923773,11.23717 c -7.653706,0.251461 -14.067565,7.747537 -12.48296,15.517915 0.409504,2.008064 0.618924,3.06508 2.105298,5.014164 -0.614371,-0.988596 -0.809512,-1.83812 -1.114145,-3.105237 -1.890787,-7.864712 6.750116,-15.422994 16.102377,-14.084928 3.359156,0.480609 5.135928,1.285218 8.712129,4.168738 l -1.621607,-1.606103 c -4.191691,-4.150626 -5.819511,-5.156322 -9.29349,-5.742285 -0.810808,-0.136761 -1.615842,-0.188278 -2.407602,-0.162264 z"
         style="fill:#ffffff;fill-opacity:1;stroke:#ff5555;stroke-width:2.10714;stroke-linecap:round;stroke-linejoin:round;stroke-miterlimit:4;stroke-dasharray:none;paint-order:stroke markers fill"
         id="path852" />
      <path
         sodipodi:nodetypes="cccsccccc"
         d="m 62.717975,11.997395 c 3.399403,1.412033 6.181938,4.34607 7.270074,8.366287 0.407653,1.506094 0.462729,2.206457 0.303842,3.863556 -0.395734,4.127174 -0.290303,3.96433 -12.042177,18.584988 -1.826247,2.272056 -3.475787,4.314779 -4.995942,6.192586 1.681609,-1.679524 3.503906,-3.503789 5.513409,-5.524474 13.227194,-13.300809 13.10528,-13.150105 13.933741,-17.212594 0.332631,-1.631129 0.351352,-2.333528 0.104685,-3.874194 -0.895198,-5.59144 -5.11649,-9.515014 -10.087632,-10.396155 z"
         style="fill:#ffffff;fill-opacity:1;stroke:#ff5555;stroke-width:2.10714;stroke-linecap:round;stroke-linejoin:round;stroke-miterlimit:4;stroke-dasharray:none;paint-order:stroke markers fill"
         id="path854" />
    </g>
    <g
       style="stroke-width:1.4954;stroke-miterlimit:4;stroke-dasharray:none"
       id="g859"
       transform="matrix(0.3232487,0,0,0.38737615,29.724181,-1.7820163)">
      <path
         sodipodi:nodetypes="sssscsssssss"
         id="path853"
         d="M 28.390878,47.23733 C 12.328458,31.085516 12.476638,31.268557 11.470598,26.335281 c -1.9863702,-9.7405 7.0914,-19.101576 16.91643,-17.44437 3.94652,0.665667 5.79526,1.807994 10.55712,6.5232 l 4.26407,4.222292 4.271,-4.229155 c 3.42861,-3.395019 4.68105,-4.419787 6.35,-5.195681 9.16817,-4.26228 19.63419,1.363428 21.24413,11.419173 0.29954,1.870906 0.27642,2.723782 -0.12751,4.704541 -1.00604,4.933276 -0.85787,4.750235 -16.92029,20.902049 -8.04545,8.090221 -14.71325,14.709493 -14.81733,14.709493 -0.10409,0 -6.77189,-6.619272 -14.81734,-14.709493 z"
         style="fill:#ff0000;fill-opacity:1;stroke:#000000;stroke-width:1.4954;stroke-linejoin:round;stroke-miterlimit:4;stroke-dasharray:none" />
      <path
         sodipodi:nodetypes="sscssccss"
         d="m 25.923773,10.69356 c -7.653706,0.251461 -14.067565,7.747537 -12.48296,15.517915 0.409504,2.008064 0.618924,3.06508 2.105298,5.014164 -0.614371,-0.988596 -0.809512,-1.83812 -1.114145,-3.105237 -1.890787,-7.864712 6.750116,-15.422994 16.102377,-14.084928 3.359156,0.480609 5.135928,1.285218 8.712129,4.168738 l -1.621607,-1.606103 c -4.191691,-4.150626 -5.819511,-5.156322 -9.29349,-5.742285 -0.810808,-0.136761 -1.615842,-0.188278 -2.407602,-0.162264 z"
         style="fill:#ffffff;fill-opacity:1;stroke:#ff5555;stroke-width:1.4954;stroke-linecap:round;stroke-linejoin:round;stroke-miterlimit:4;stroke-dasharray:none;paint-order:stroke markers fill"
         id="path855" />
      <path
         sodipodi:nodetypes="cccsccccc"
         d="m 63.045477,11.590024 c 3.399403,1.412033 6.181938,4.34607 7.270074,8.366287 0.407653,1.506094 0.462729,2.206457 0.303842,3.863556 -0.395734,4.127174 -0.290303,3.96433 -12.042177,18.584988 -1.826247,2.272056 -3.475787,4.314779 -4.995942,6.192586 1.681609,-1.679524 3.503906,-3.503789 5.513409,-5.524474 13.227194,-13.300809 13.10528,-13.150105 13.933741,-17.212594 0.332631,-1.631129 0.351352,-2.333528 0.104685,-3.874194 -0.895198,-5.59144 -5.11649,-9.515014 -10.087632,-10.396155 z"
         style="fill:#ffffff;fill-opacity:1;stroke:#ff5555;stroke-width:1.4954;stroke-linecap:round;stroke-linejoin:round;stroke-miterlimit:4;stroke-dasharray:none;paint-order:stroke markers fill"
         id="path857" />
    </g>
    <g
       id="g901"
       transform="matrix(0.24040672,0,0,0.38884158,62.339934,-1.7227762)"
       style="stroke-width:1.73074;stroke-miterlimit:4;stroke-dasharray:none">
      <path
         sodipodi:nodetypes="sssacasssszs"
         id="path895"
         d="M 28.390878,48.59821 C 12.328458,32.446396 12.476638,31.268557 11.470598,26.335281 c -1.9863702,-9.7405 7.0914,-19.101576 16.91643,-17.44437 3.94652,0.665667 7.565479,3.095051 10.55712,5.16232 1.789471,1.236552 4.26407,4.222292 4.26407,4.222292 0,0 2.585669,-2.93442 4.271,-4.229155 1.855101,-1.425159 4.68105,-3.058907 6.35,-3.834801 9.16817,-4.26228 19.63419,1.363428 21.24413,11.419173 0.29954,1.870906 0.27642,2.723782 -0.12751,4.704541 -1.00604,4.933276 -0.85787,6.111115 -16.92029,22.262929 -8.04545,8.090221 -12.19876,13.348613 -14.81733,13.348613 -2.61857,0 -6.77189,-5.258392 -14.81734,-13.348613 z"
         style="fill:#ff0000;fill-opacity:1;stroke:#000000;stroke-width:1.73074;stroke-linejoin:round;stroke-miterlimit:4;stroke-dasharray:none" />
      <path
         sodipodi:nodetypes="sscssccss"
         d="m 25.923773,10.69356 c -7.653706,0.251461 -14.067565,7.747537 -12.48296,15.517915 0.409504,2.008064 0.618924,3.06508 2.105298,5.014164 -0.614371,-0.988596 -0.809512,-1.83812 -1.114145,-3.105237 -1.890787,-7.864712 6.750116,-15.422994 16.102377,-14.084928 3.359156,0.480609 5.135928,1.285218 8.712129,4.168738 l -1.621607,-1.606103 c -4.191691,-4.150626 -5.819511,-5.156322 -9.29349,-5.742285 -0.810808,-0.136761 -1.615842,-0.188278 -2.407602,-0.162264 z"
         style="fill:#ffffff;fill-opacity:1;stroke:#ff5555;stroke-width:1.73074;stroke-linecap:round;stroke-linejoin:round;stroke-miterlimit:4;stroke-dasharray:none;paint-order:stroke markers fill"
         id="path897" />
      <path
         sodipodi:nodetypes="cccsccccc"
         d="m 63.045477,11.590024 c 3.399403,1.412033 6.181938,4.34607 7.270074,8.366287 0.407653,1.506094 0.462729,2.206457 0.303842,3.863556 -0.395734,4.127174 -0.290303,3.96433 -12.042177,18.584988 -1.826247,2.272056 -3.475787,4.314779 -4.995942,6.192586 1.681609,-1.679524 3.503906,-3.503789 5.513409,-5.524474 13.227194,-13.300809 13.10528,-13.150105 13.933741,-17.212594 0.332631,-1.631129 0.351352,-2.333528 0.104685,-3.874194 -0.895198,-5.59144 -5.11649,-9.515014 -10.087632,-10.396155 z"
         style="fill:#ffffff;fill-opacity:1;stroke:#ff5555;stroke-width:1.73074;stroke-linecap:round;stroke-linejoin:round;stroke-miterlimit:4;stroke-dasharray:none;paint-order:stroke markers fill"
         id="path899" />
    </g>
    <g
       transform="matrix(0.16191182,0,0,0.38951168,36.699059,21.998695)"
       id="g880"
       style="stroke-width:2.10714;stroke-miterlimit:4;stroke-dasharray:none">
      <path
         style="fill:#ff0000;fill-opacity:1;stroke:#000000;stroke-width:2.10714;stroke-linejoin:round;stroke-miterlimit:4;stroke-dasharray:none"
         d="M 28.390878,51.312946 C 12.328458,35.161132 12.476638,31.268557 11.470598,26.335281 9.4842278,16.594781 18.67322,7.6490208 28.49825,9.3062268 c 8.538383,1.3454252 18.680382,1.2927122 26.814348,0.040015 6.731408,-1.133082 18.15081,2.2287532 19.76075,12.2844982 0.29954,1.870906 0.27642,2.723782 -0.12751,4.704541 -1.00604,4.933276 -0.85787,8.825851 -16.92029,24.977665 -8.04545,8.090221 -10.444923,10.633877 -14.81733,10.633877 -4.372407,0 -6.77189,-2.543656 -14.81734,-10.633877 z"
         id="path874"
         sodipodi:nodetypes="ssccssszs" />
      <path
         id="path876"
         style="fill:#ffffff;fill-opacity:1;stroke:#ff5555;stroke-width:2.10714;stroke-linecap:round;stroke-linejoin:round;stroke-miterlimit:4;stroke-dasharray:none;paint-order:stroke markers fill"
         d="m 22.492534,11.889148 c -8.904785,3.525168 -10.636326,7.095559 -9.051721,14.865937 0.409504,2.008064 0.618924,3.06508 2.105298,5.014164 -0.614371,-0.988596 -0.809512,-1.83812 -1.114145,-3.105237 -1.890787,-7.864712 6.750116,-15.422994 16.102377,-14.084928 3.359156,0.480609 3.068667,0.948356 4.871853,1.150986 3.282891,0.368909 2.528253,-0.792179 2.528253,-0.792179 -3.68262,-2.791121 -7.669482,-3.487229 -9.603074,-3.538457 -1.981483,-0.0525 -4.401044,-0.07947 -5.838841,0.489714 z"
         sodipodi:nodetypes="ascssscsa" />
      <path
         id="path878"
         style="fill:#ffffff;fill-opacity:1;stroke:#ff5555;stroke-width:2.10714;stroke-linecap:round;stroke-linejoin:round;stroke-miterlimit:4;stroke-dasharray:none;paint-order:stroke markers fill"
         d="m 62.717975,11.997395 c 3.399403,1.412033 4.497497,3.838345 5.585633,7.858562 0.407653,1.506094 0.420303,3.108353 0.261416,4.765452 -0.395734,4.127174 1.436564,3.570159 -10.31531,18.190817 -1.826247,2.272056 -3.475787,4.314779 -4.995942,6.192586 1.681609,-1.679524 3.503906,-3.503789 5.513409,-5.524474 13.227194,-13.300809 13.10528,-13.150105 13.933741,-17.212594 0.332631,-1.631129 0.351352,-2.333528 0.104685,-3.874194 -0.895198,-5.59144 -5.11649,-9.515014 -10.087632,-10.396155 z"
         sodipodi:nodetypes="cccsccccc" />
    </g>
    <g
       transform="matrix(0.16191182,0,0,0.38951168,65.82647,21.998695)"
       id="g898"
       style="stroke-width:2.10714;stroke-miterlimit:4;stroke-dasharray:none">
      <path
         style="fill:#ff0000;fill-opacity:1;stroke:#000000;stroke-width:2.10714;stroke-linejoin:round;stroke-miterlimit:4;stroke-dasharray:none"
         d="M 28.390878,51.312946 C 12.328458,35.161132 12.476638,31.268557 11.470598,26.335281 9.4842278,16.594781 18.67322,7.6490208 28.49825,9.3062268 c 3.94652,0.665667 8.002484,1.9886472 10.445898,3.3908072 2.443414,1.40216 4.26407,4.222292 4.26407,4.222292 0,0 2.393506,-3.105703 4.271,-4.229155 1.877495,-1.123452 5.512554,-2.9532702 7.83338,-3.3439294 6.731408,-1.133082 18.15081,2.2287534 19.76075,12.2844984 0.29954,1.870906 0.27642,2.723782 -0.12751,4.704541 -1.00604,4.933276 -0.85787,8.825851 -16.92029,24.977665 -8.04545,8.090221 -10.444923,10.633877 -14.81733,10.633877 -4.372407,0 -6.77189,-2.543656 -14.81734,-10.633877 z"
         id="path891"
         sodipodi:nodetypes="ssszczsssszs" />
      <path
         id="path893"
         style="fill:#ffffff;fill-opacity:1;stroke:#ff5555;stroke-width:2.10714;stroke-linecap:round;stroke-linejoin:round;stroke-miterlimit:4;stroke-dasharray:none;paint-order:stroke markers fill"
         d="m 25.923773,11.23717 c -7.653706,0.251461 -14.067565,7.747537 -12.48296,15.517915 0.409504,2.008064 0.618924,3.06508 2.105298,5.014164 -0.614371,-0.988596 -0.809512,-1.83812 -1.114145,-3.105237 -1.890787,-7.864712 6.750116,-15.422994 16.102377,-14.084928 3.359156,0.480609 5.135928,1.285218 8.712129,4.168738 l -1.621607,-1.606103 c -4.191691,-4.150626 -5.819511,-5.156322 -9.29349,-5.742285 -0.810808,-0.136761 -1.615842,-0.188278 -2.407602,-0.162264 z"
         sodipodi:nodetypes="sscssccss" />
      <path
         id="path896"
         style="fill:#ffffff;fill-opacity:1;stroke:#ff5555;stroke-width:2.10714;stroke-linecap:round;stroke-linejoin:round;stroke-miterlimit:4;stroke-dasharray:none;paint-order:stroke markers fill"
         d="m 62.717975,11.997395 c 3.399403,1.412033 6.181938,4.34607 7.270074,8.366287 0.407653,1.506094 0.462729,2.206457 0.303842,3.863556 -0.395734,4.127174 -0.290303,3.96433 -12.042177,18.584988 -1.826247,2.272056 -3.475787,4.314779 -4.995942,6.192586 1.681609,-1.679524 3.503906,-3.503789 5.513409,-5.524474 13.227194,-13.300809 13.10528,-13.150105 13.933741,-17.212594 0.332631,-1.631129 0.351352,-2.333528 0.104685,-3.874194 -0.895198,-5.59144 -5.11649,-9.515014 -10.087632,-10.396155 z"
         sodipodi:nodetypes="cccsccccc" />
    </g>
    <g
       style="stroke-width:1.73074;stroke-miterlimit:4;stroke-dasharray:none"
       transform="matrix(0.24040672,0,0,0.38884158,4.1591395,45.902224)"
       id="g906">
      <path
         style="fill:#ff0000;fill-opacity:1;stroke:#000000;stroke-width:1.73074;stroke-linejoin:round;stroke-miterlimit:4;stroke-dasharray:none"
         d="M 28.390878,48.59821 C 12.328458,32.446396 12.476638,31.268557 11.470598,26.335281 c -1.9863702,-9.7405 7.0914,-19.101576 16.91643,-17.44437 3.94652,0.665667 7.565479,3.095051 10.55712,5.16232 1.789471,1.236552 4.26407,4.222292 4.26407,4.222292 0,0 2.585669,-2.93442 4.271,-4.229155 1.855101,-1.425159 4.68105,-3.058907 6.35,-3.834801 9.16817,-4.26228 19.63419,1.363428 21.24413,11.419173 0.29954,1.870906 0.27642,2.723782 -0.12751,4.704541 -1.00604,4.933276 -0.85787,6.111115 -16.92029,22.262929 -8.04545,8.090221 -12.19876,13.348613 -14.81733,13.348613 -2.61857,0 -6.77189,-5.258392 -14.81734,-13.348613 z"
         id="path900"
         sodipodi:nodetypes="sssacasssszs" />
      <path
         id="path902"
         style="fill:#ffffff;fill-opacity:1;stroke:#ff5555;stroke-width:1.73074;stroke-linecap:round;stroke-linejoin:round;stroke-miterlimit:4;stroke-dasharray:none;paint-order:stroke markers fill"
         d="m 25.923773,10.69356 c -7.653706,0.251461 -14.067565,7.747537 -12.48296,15.517915 0.409504,2.008064 0.618924,3.06508 2.105298,5.014164 -0.614371,-0.988596 -0.809512,-1.83812 -1.114145,-3.105237 -1.890787,-7.864712 6.750116,-15.422994 16.102377,-14.084928 3.359156,0.480609 5.135928,1.285218 8.712129,4.168738 l -1.621607,-1.606103 c -4.191691,-4.150626 -5.819511,-5.156322 -9.29349,-5.742285 -0.810808,-0.136761 -1.615842,-0.188278 -2.407602,-0.162264 z"
         sodipodi:nodetypes="sscssccss" />
      <path
         id="path904"
         style="fill:#ffffff;fill-opacity:1;stroke:#ff5555;stroke-width:1.73074;stroke-linecap:round;stroke-linejoin:round;stroke-miterlimit:4;stroke-dasharray:none;paint-order:stroke markers fill"
         d="m 63.045477,11.590024 c 3.399403,1.412033 6.181938,4.34607 7.270074,8.366287 0.407653,1.506094 0.462729,2.206457 0.303842,3.863556 -0.395734,4.127174 -0.290303,3.96433 -12.042177,18.584988 -1.826247,2.272056 -3.475787,4.314779 -4.995942,6.192586 1.681609,-1.679524 3.503906,-3.503789 5.513409,-5.524474 13.227194,-13.300809 13.10528,-13.150105 13.933741,-17.212594 0.332631,-1.631129 0.351352,-2.333528 0.104685,-3.874194 -0.895198,-5.59144 -5.11649,-9.515014 -10.087632,-10.396155 z"
         sodipodi:nodetypes="cccsccccc" />
    </g>
    <g
       transform="matrix(0.3232487,0,0,0.38737615,29.724181,46.039853)"
       id="g914"
       style="stroke-width:1.4954;stroke-miterlimit:4;stroke-dasharray:none">
      <path
         style="fill:#ff0000;fill-opacity:1;stroke:#000000;stroke-width:1.4954;stroke-linejoin:round;stroke-miterlimit:4;stroke-dasharray:none"
         d="M 28.390878,47.23733 C 12.328458,31.085516 12.476638,31.268557 11.470598,26.335281 c -1.9863702,-9.7405 7.0914,-19.101576 16.91643,-17.44437 3.94652,0.665667 5.79526,1.807994 10.55712,6.5232 l 4.26407,4.222292 4.271,-4.229155 c 3.42861,-3.395019 4.68105,-4.419787 6.35,-5.195681 9.16817,-4.26228 19.63419,1.363428 21.24413,11.419173 0.29954,1.870906 0.27642,2.723782 -0.12751,4.704541 -1.00604,4.933276 -0.85787,4.750235 -16.92029,20.902049 -8.04545,8.090221 -14.71325,14.709493 -14.81733,14.709493 -0.10409,0 -6.77189,-6.619272 -14.81734,-14.709493 z"
         id="path908"
         sodipodi:nodetypes="sssscsssssss" />
      <path
         id="path910"
         style="fill:#ffffff;fill-opacity:1;stroke:#ff5555;stroke-width:1.4954;stroke-linecap:round;stroke-linejoin:round;stroke-miterlimit:4;stroke-dasharray:none;paint-order:stroke markers fill"
         d="m 25.923773,10.69356 c -7.653706,0.251461 -14.067565,7.747537 -12.48296,15.517915 0.409504,2.008064 0.618924,3.06508 2.105298,5.014164 -0.614371,-0.988596 -0.809512,-1.83812 -1.114145,-3.105237 -1.890787,-7.864712 6.750116,-15.422994 16.102377,-14.084928 3.359156,0.480609 5.135928,1.285218 8.712129,4.168738 l -1.621607,-1.606103 c -4.191691,-4.150626 -5.819511,-5.156322 -9.29349,-5.742285 -0.810808,-0.136761 -1.615842,-0.188278 -2.407602,-0.162264 z"
         sodipodi:nodetypes="sscssccss" />
      <path
         id="path912"
         style="fill:#ffffff;fill-opacity:1;stroke:#ff5555;stroke-width:1.4954;stroke-linecap:round;stroke-linejoin:round;stroke-miterlimit:4;stroke-dasharray:none;paint-order:stroke markers fill"
         d="m 63.045477,11.590024 c 3.399403,1.412033 6.181938,4.34607 7.270074,8.366287 0.407653,1.506094 0.462729,2.206457 0.303842,3.863556 -0.395734,4.127174 -0.290303,3.96433 -12.042177,18.584988 -1.826247,2.272056 -3.475787,4.314779 -4.995942,6.192586 1.681609,-1.679524 3.503906,-3.503789 5.513409,-5.524474 13.227194,-13.300809 13.10528,-13.150105 13.933741,-17.212594 0.332631,-1.631129 0.351352,-2.333528 0.104685,-3.874194 -0.895198,-5.59144 -5.11649,-9.515014 -10.087632,-10.396155 z"
         sodipodi:nodetypes="cccsccccc" />
    </g>
  </g>
</svg>
